# This file uses centimeters as units for non-parametric coordinates.

mtllib VPT.mtl
g default
v -3.872603 -3.844997 0.051957
v 3.887587 -3.844997 0.051957
v -3.872603 -0.013880 0.051957
v 3.887587 -0.013880 0.051957
v -3.872603 -0.013880 -0.040731
v 3.887587 -0.013880 -0.040731
v -3.872603 -3.844997 -0.040731
v 3.887587 -3.844997 -0.040731
vt 0.375000 0.000000
vt 0.625000 0.000000
vt 0.625000 0.250000
vt 0.375000 0.250000
vt 0.625000 0.500000
vt 0.375000 0.500000
vt 0.625000 0.750000
vt 0.375000 0.750000
vt 0.625000 1.000000
vt 0.375000 1.000000
vt 0.875000 0.000000
vt 0.875000 0.250000
vt 0.125000 0.000000
vt 0.125000 0.250000
vn 0.000000 0.000000 1.000000
vn 0.000000 0.000000 1.000000
vn 0.000000 0.000000 1.000000
vn 0.000000 0.000000 1.000000
vn 0.000000 1.000000 0.000000
vn 0.000000 1.000000 0.000000
vn 0.000000 1.000000 0.000000
vn 0.000000 1.000000 0.000000
vn 0.000000 0.000000 -1.000000
vn 0.000000 0.000000 -1.000000
vn 0.000000 0.000000 -1.000000
vn 0.000000 0.000000 -1.000000
vn 0.000000 -1.000000 0.000000
vn 0.000000 -1.000000 0.000000
vn 0.000000 -1.000000 0.000000
vn 0.000000 -1.000000 0.000000
vn 1.000000 0.000000 0.000000
vn 1.000000 0.000000 0.000000
vn 1.000000 0.000000 0.000000
vn 1.000000 0.000000 0.000000
vn -1.000000 0.000000 0.000000
vn -1.000000 0.000000 0.000000
vn -1.000000 0.000000 0.000000
vn -1.000000 0.000000 0.000000
s 1
g polySurface18 pasted__group35_pasted__pasted__group33_pasted__pasted__pasted__group30_pasted__pasted__pasted__pasted__group29_pasted__pasted__
usemtl pasted__pasted__pasted__pasted__pasted__lambert3SG6
f 1/1/1 2/2/2 3/4/3
f 3/4/3 2/2/2 4/3/4
s 2
f 3/4/5 4/3/6 5/6/7
f 5/6/7 4/3/6 6/5/8
s 3
f 5/6/9 6/5/10 7/8/11
f 7/8/11 6/5/10 8/7/12
s 4
f 7/8/13 8/7/14 1/10/15
f 1/10/15 8/7/14 2/9/16
s 5
f 2/2/17 8/11/18 4/3/19
f 4/3/19 8/11/18 6/12/20
s 6
f 7/13/21 1/1/22 5/14/23
f 5/14/23 1/1/22 3/4/24
g default
v -3.872603 -3.844997 0.051957
v 3.887587 -3.844997 0.051957
v -3.872603 -0.013880 0.051957
v 3.887587 -0.013880 0.051957
v -3.872603 -0.013880 -0.040731
v 3.887587 -0.013880 -0.040731
v -3.872603 -3.844997 -0.040731
v 3.887587 -3.844997 -0.040731
vt 0.375000 0.000000
vt 0.625000 0.000000
vt 0.625000 0.250000
vt 0.375000 0.250000
vt 0.625000 0.500000
vt 0.375000 0.500000
vt 0.625000 0.750000
vt 0.375000 0.750000
vt 0.625000 1.000000
vt 0.375000 1.000000
vt 0.875000 0.000000
vt 0.875000 0.250000
vt 0.125000 0.000000
vt 0.125000 0.250000
vn 0.000000 0.000000 1.000000
vn 0.000000 0.000000 1.000000
vn 0.000000 0.000000 1.000000
vn 0.000000 0.000000 1.000000
vn 0.000000 1.000000 0.000000
vn 0.000000 1.000000 0.000000
vn 0.000000 1.000000 0.000000
vn 0.000000 1.000000 0.000000
vn 0.000000 0.000000 -1.000000
vn 0.000000 0.000000 -1.000000
vn 0.000000 0.000000 -1.000000
vn 0.000000 0.000000 -1.000000
vn 0.000000 -1.000000 0.000000
vn 0.000000 -1.000000 0.000000
vn 0.000000 -1.000000 0.000000
vn 0.000000 -1.000000 0.000000
vn 1.000000 0.000000 0.000000
vn 1.000000 0.000000 0.000000
vn 1.000000 0.000000 0.000000
vn 1.000000 0.000000 0.000000
vn -1.000000 0.000000 0.000000
vn -1.000000 0.000000 0.000000
vn -1.000000 0.000000 0.000000
vn -1.000000 0.000000 0.000000
s 1
g polySurface18 pasted__group35_pasted__pasted__group33_pasted__pasted__pasted__group30_pasted__pasted__pasted__pasted__group29_pasted__pasted__
f 9/15/25 10/16/26 11/18/27
f 11/18/27 10/16/26 12/17/28
s 2
f 11/18/29 12/17/30 13/20/31
f 13/20/31 12/17/30 14/19/32
s 3
f 13/20/33 14/19/34 15/22/35
f 15/22/35 14/19/34 16/21/36
s 4
f 15/22/37 16/21/38 9/24/39
f 9/24/39 16/21/38 10/23/40
s 5
f 10/16/41 16/25/42 12/17/43
f 12/17/43 16/25/42 14/26/44
s 6
f 15/27/45 9/15/46 13/28/47
f 13/28/47 9/15/46 11/18/48
